<svg width="22" height="23" viewBox="0 0 22 23" fill="none" xmlns="http://www.w3.org/2000/svg">
<g id="Group 20">
<path id="Vector" d="M2.85801 8.50071C2.71205 7.84324 2.73446 7.15956 2.92316 6.51305C3.11187 5.86655 3.46075 5.27816 3.93747 4.80243C4.41419 4.32671 5.00332 3.97906 5.65021 3.79171C6.29711 3.60436 6.98084 3.58338 7.63801 3.73071C7.99971 3.16501 8.49801 2.69947 9.08696 2.377C9.6759 2.05453 10.3366 1.8855 11.008 1.8855C11.6795 1.8855 12.3401 2.05453 12.9291 2.377C13.518 2.69947 14.0163 3.16501 14.378 3.73071C15.0362 3.58274 15.7211 3.60362 16.369 3.79143C17.0169 3.97923 17.6068 4.32785 18.0839 4.80487C18.5609 5.28188 18.9095 5.87179 19.0973 6.51971C19.2851 7.16764 19.306 7.85254 19.158 8.51071C19.7237 8.87242 20.1892 9.37072 20.5117 9.95966C20.8342 10.5486 21.0032 11.2093 21.0032 11.8807C21.0032 12.5522 20.8342 13.2128 20.5117 13.8018C20.1892 14.3907 19.7237 14.889 19.158 15.2507C19.3053 15.9079 19.2844 16.5916 19.097 17.2385C18.9097 17.8854 18.562 18.4745 18.0863 18.9512C17.6106 19.428 17.0222 19.7769 16.3757 19.9656C15.7292 20.1543 15.0455 20.1767 14.388 20.0307C14.0268 20.5986 13.5281 21.0661 12.9381 21.39C12.3482 21.7139 11.686 21.8838 11.013 21.8838C10.34 21.8838 9.67783 21.7139 9.08788 21.39C8.49793 21.0661 7.99924 20.5986 7.63801 20.0307C6.98084 20.178 6.29711 20.1571 5.65021 19.9697C5.00332 19.7824 4.41419 19.4347 3.93747 18.959C3.46075 18.4833 3.11187 17.8949 2.92316 17.2484C2.73446 16.6019 2.71205 15.9182 2.85801 15.2607C2.28796 14.9 1.81842 14.4009 1.49305 13.8099C1.16769 13.219 0.99707 12.5553 0.99707 11.8807C0.99707 11.2061 1.16769 10.5425 1.49305 9.9515C1.81842 9.36054 2.28796 8.86147 2.85801 8.50071Z" stroke="white" stroke-width="2" stroke-linecap="round" stroke-linejoin="round"/>
<path id="Vector_2" d="M8.00781 11.8806L10.0078 13.8806L14.0078 9.88062" stroke="white" stroke-width="2" stroke-linecap="round" stroke-linejoin="round"/>
</g>
</svg>
